<svg width="21" height="21" viewBox="0 0 21 21" fill="none" xmlns="http://www.w3.org/2000/svg">
<path d="M10.4895 0C4.6935 0 0 4.704 0 10.5C0 16.296 4.6935 21 10.4895 21C16.296 21 21 16.296 21 10.5C21 4.704 16.296 0 10.4895 0ZM10.5 18.9C5.859 18.9 2.1 15.141 2.1 10.5C2.1 5.859 5.859 2.1 10.5 2.1C15.141 2.1 18.9 5.859 18.9 10.5C18.9 15.141 15.141 18.9 10.5 18.9ZM14.175 9.45C15.0465 9.45 15.75 8.7465 15.75 7.875C15.75 7.0035 15.0465 6.3 14.175 6.3C13.3035 6.3 12.6 7.0035 12.6 7.875C12.6 8.7465 13.3035 9.45 14.175 9.45ZM6.825 9.45C7.6965 9.45 8.4 8.7465 8.4 7.875C8.4 7.0035 7.6965 6.3 6.825 6.3C5.9535 6.3 5.25 7.0035 5.25 7.875C5.25 8.7465 5.9535 9.45 6.825 9.45ZM10.5 16.275C12.9465 16.275 15.0255 14.742 15.8655 12.6H5.1345C5.9745 14.742 8.0535 16.275 10.5 16.275Z" fill="#BFC6ED"/>
</svg>
