<svg width="43" height="43" viewBox="0 0 43 43" fill="none" xmlns="http://www.w3.org/2000/svg">
<rect width="43" height="43" rx="7" fill="white"/>
<path d="M21.4895 11C15.6935 11 11 15.704 11 21.5C11 27.296 15.6935 32 21.4895 32C27.296 32 32 27.296 32 21.5C32 15.704 27.296 11 21.4895 11ZM21.5 29.9C16.859 29.9 13.1 26.141 13.1 21.5C13.1 16.859 16.859 13.1 21.5 13.1C26.141 13.1 29.9 16.859 29.9 21.5C29.9 26.141 26.141 29.9 21.5 29.9ZM25.175 20.45C26.0465 20.45 26.75 19.7465 26.75 18.875C26.75 18.0035 26.0465 17.3 25.175 17.3C24.3035 17.3 23.6 18.0035 23.6 18.875C23.6 19.7465 24.3035 20.45 25.175 20.45ZM17.825 20.45C18.6965 20.45 19.4 19.7465 19.4 18.875C19.4 18.0035 18.6965 17.3 17.825 17.3C16.9535 17.3 16.25 18.0035 16.25 18.875C16.25 19.7465 16.9535 20.45 17.825 20.45ZM21.5 27.275C23.9465 27.275 26.0255 25.742 26.8655 23.6H16.1345C16.9745 25.742 19.0535 27.275 21.5 27.275Z" fill="#647DFF"/>
</svg>
